PathFileType	4	(X/Y/Z)	E:\Qualisys_Data\Carbon_Farble_Plate\Data\Amateur_Runner\S2\T2\S2T2V12_c3d.trc
DataRate	CameraRate	NumFrames	NumMarkers	Units	OrigDataRate	OrigDataStartFrame	OrigNumFrames
200.000000	200.000000	5	39	mm	200.000000	41	331
Frame#	Time	LSHO			RSHO			LICST			RICST			LASIS			LHEEL			RASIS			LTROC			RTROC			SACR			LTH1			LSK4			LTH2			LTH3			RHM5			LSK2			LTH4			RTH1			LTOE			RTH2			RTH3			RTH4			LLEP			RLEP			LSK1			LSK3			RSK1			LHM5			RSK2			LFT1			RSK3			RSK4			LLME			RLME			RTOE			RHEEL			RFT1			RFT2			LFT2			
		X1	Y1	Z1	X2	Y2	Z2	X3	Y3	Z3	X4	Y4	Z4	X5	Y5	Z5	X6	Y6	Z6	X7	Y7	Z7	X8	Y8	Z8	X9	Y9	Z9	X10	Y10	Z10	X11	Y11	Z11	X12	Y12	Z12	X13	Y13	Z13	X14	Y14	Z14	X15	Y15	Z15	X16	Y16	Z16	X17	Y17	Z17	X18	Y18	Z18	X19	Y19	Z19	X20	Y20	Z20	X21	Y21	Z21	X22	Y22	Z22	X23	Y23	Z23	X24	Y24	Z24	X25	Y25	Z25	X26	Y26	Z26	X27	Y27	Z27	X28	Y28	Z28	X29	Y29	Z29	X30	Y30	Z30	X31	Y31	Z31	X32	Y32	Z32	X33	Y33	Z33	X34	Y34	Z34	X35	Y35	Z35	X36	Y36	Z36	X37	Y37	Z37	X38	Y38	Z38	X39	Y39	Z39	

42	0.205	-1601.705688476562	1424.05712890625	-504.2958374023438	-1618.576538085938	1388.817626953125	-183.3779449462891	-1662.1923828125	953.6153564453124	-507.4862976074219	-1658.442626953125	946.4949340820312	-199.2776336669922	-1601.655517578125	908.4859619140624	-492.0784912109375	-1944.460205078125	394.4078674316406	-410.7998046875	-1592.79736328125	909.3880615234376	-227.8362579345703	-1724.158325195312	820.57666015625	-500.5237731933594	-1730.34130859375	840.1859130859375	-200.0348052978516	-1749.075439453125	991.4945068359376	-356.9952392578125	-1543.4140625	627.303466796875	-535.5119018554688	-1766.657470703125	436.3330688476562	-507.607177734375	-1624.985107421875	604.7139892578125	-534.5759887695312	-1514.880981445312	527.9391479492188	-525.5106201171875	-1678.918090820312	69.47935485839844	-257.8176879882812	-1669.892700195312	463.0538940429688	-524.1699829101562	-1598.579345703125	506.7298278808594	-520.0704956054688	-1559.0029296875	603.3572387695312	-211.3685302734375	-1893.67822265625	159.0676422119141	-477.0290222167969	-1636.282104492188	591.7548828125	-207.9579925537109	-1545.568481445312	506.4743347167969	-238.3796691894531	-1624.946166992188	498.4369812011719	-232.7372589111328	-1552.444580078125	463.7528686523438	-526.1043090820312	-1591.757934570312	453.8397216796875	-236.5619201660156	-1649.58544921875	389.2768249511719	-523.1217041015625	-1745.03369140625	360.5128173828125	-511.2140197753906	-1599.448974609375	330.5324401855469	-249.1011505126953	-1933.03369140625	215.2563323974609	-521.2109375	-1669.407958984375	366.49755859375	-229.2051239013672	-1965.2431640625	373.8700561523438	-386.7435913085938	-1649.036254882812	242.1790771484375	-265.6578979492188	-1716.183715820312	279.2123107910156	-245.9194488525391	-1922.492919921875	348.627197265625	-480.5700073242188	-1776.845947265625	112.0091934204102	-289.4181213378906	-1603.249267578125	67.0086441040039	-316.4117431640625	-1845.337524414062	110.0900115966797	-348.9368286132812	-1833.40869140625	74.15145874023438	-372.988525390625	-1851.181884765625	83.20445251464844	-321.0594787597656	-1976.980712890625	387.1139526367188	-438.5395202636719
43	0.21	-1589.168579101562	1427.08203125	-504.4718627929688	-1600.806518554688	1390.9189453125	-183.0079193115234	-1647.29296875	956.374267578125	-507.5435791015625	-1643.726196289062	948.3782958984376	-199.7591857910156	-1586.866821289062	911.1873779296876	-491.8495178222656	-1922.861328125	388.4014587402344	-413.2604064941406	-1577.3779296875	910.6754760742188	-227.4388122558594	-1709.007446289062	823.0578002929688	-501.088623046875	-1715.714111328125	841.9073486328125	-200.1884307861328	-1733.491821289062	993.6356201171876	-355.8772888183594	-1524.49560546875	631.4390869140625	-535.022216796875	-1744.221923828125	435.8658752441406	-507.4550170898438	-1606.133544921875	607.8186645507812	-533.9888916015625	-1493.989135742188	533.0964965820312	-524.1198120117188	-1678.811645507812	69.54519653320312	-257.74560546875	-1649.20703125	465.5124816894531	-524.3329467773438	-1576.165161132812	510.433837890625	-518.2893676757812	-1550.873046875	600.4193115234375	-211.1208038330078	-1861.140625	155.2284393310547	-476.1391906738281	-1628.31884765625	591.2189331054688	-208.2786254882812	-1540.475219726562	503.3569641113281	-239.3554534912109	-1620.166381835938	497.5904235839844	-233.3668518066406	-1530.804321289062	468.4229431152344	-524.6493530273438	-1585.87353515625	453.5669860839844	-236.6044769287109	-1625.373901367188	390.7062072753906	-521.5267333984375	-1720.283081054688	360.2281188964844	-510.3125305175781	-1595.926635742188	330.2294006347656	-249.1722106933594	-1902.549560546875	210.0222015380859	-521.2672119140625	-1664.792846679688	367.3545227050781	-228.8823547363281	-1941.473022460938	366.7798461914062	-386.9264831542969	-1646.222900390625	243.0217590332031	-265.8168029785156	-1713.680053710938	280.9297180175781	-246.1964111328125	-1897.13623046875	343.0062561035156	-479.95166015625	-1775.891723632812	112.8942337036133	-289.7064514160156	-1603.595703125	66.50281524658203	-316.3025817871094	-1843.873413085938	111.7553939819336	-349.0034790039062	-1832.790161132812	76.63117980957031	-373.868896484375	-1851.033447265625	84.02604675292969	-321.2969360351562	-1954.22998046875	380.4636535644531	-439.8358459472656
44	0.215	-1575.753784179688	1429.560302734375	-504.2416076660156	-1583.736328125	1393.429321289062	-183.0402374267578	-1632.2470703125	959.0596923828124	-506.9964599609375	-1626.430786132812	950.669921875	-198.8399353027344	-1572.093872070312	914.4490966796876	-492.0382995605469	-1899.939208984375	382.1085815429688	-413.6769714355469	-1561.521362304688	912.1949462890624	-227.3313751220703	-1693.308715820312	826.0794067382812	-501.3615417480469	-1702.463623046875	844.2095336914062	-201.0120697021484	-1718.37646484375	996.0581665039062	-355.427734375	-1505.794799804688	636.2799072265625	-534.1237182617188	-1720.837646484375	434.1261291503906	-506.3344421386719	-1586.895751953125	611.3536376953125	-532.8784790039062	-1473.6376953125	538.7035522460938	-523.2281494140625	-1678.571655273438	69.4373779296875	-258.0425720214844	-1627.838989257812	467.5117492675781	-523.6144409179688	-1556.175903320312	514.3220825195312	-516.9450073242188	-1543.49462890625	598.7955322265625	-210.9665832519531	-1829.57568359375	150.3103637695312	-476.9355773925781	-1620.264892578125	592.0235595703125	-207.9518280029297	-1535.384643554688	502.0935363769531	-239.8303680419922	-1615.68701171875	498.4222106933594	-233.7775573730469	-1508.95703125	473.3014831542969	-523.0238037109375	-1580.819580078125	454.2518920898438	-236.9499664306641	-1600.085083007812	392.1966247558594	-520.7833862304688	-1695.721801757812	359.831298828125	-509.4625549316406	-1592.547607421875	331.28662109375	-249.2255706787109	-1871.32568359375	203.9070892333984	-520.6549072265625	-1661.219848632812	368.5824584960938	-228.9396820068359	-1918.406860351562	359.3369750976562	-387.6922607421875	-1644.09375	244.4341583251953	-265.5081787109375	-1711.017211914062	283.3108520507812	-246.5503845214844	-1872.387451171875	337.0043334960938	-480.1648254394531	-1775.244873046875	114.369743347168	-289.8003540039062	-1603.513061523438	66.60086059570312	-316.4161071777344	-1844.3720703125	113.0656433105469	-349.3086242675781	-1832.893432617188	77.97039794921875	-373.3214111328125	-1850.708129882812	85.1905746459961	-321.1347045898438	-1931.448486328125	372.5671081542969	-439.9227600097656
45	0.22	-1563.303588867188	1433.01123046875	-504.1830749511719	-1566.111083984375	1396.691772460938	-183.1239013671875	-1616.8681640625	961.8711547851562	-506.7527465820312	-1610.126708984375	953.2188720703124	-199.2864532470703	-1556.954956054688	917.5354614257812	-491.6229858398438	-1874.87841796875	373.8058166503906	-411.0740966796875	-1545.83203125	913.8731079101562	-227.3277893066406	-1677.85888671875	829.6337890625	-502.6349182128906	-1686.567504882812	846.6672973632812	-200.5997467041016	-1702.04736328125	999.315185546875	-353.8692932128906	-1487.099365234375	641.673095703125	-533.3952026367188	-1698.89404296875	433.285400390625	-505.9471435546875	-1568.135009765625	615.3365478515625	-532.2124633789062	-1453.643310546875	544.3013305664062	-521.7169189453125	-1678.119018554688	69.89192199707031	-258.5094604492188	-1607.232055664062	469.2137756347656	-524.2902221679688	-1535.309936523438	518.7869262695312	-515.428466796875	-1535.987670898438	598.4964599609375	-210.6642303466797	-1795.070678710938	147.1005249023438	-476.4308471679688	-1612.822631835938	594.378173828125	-207.6927947998047	-1530.403198242188	501.9097900390625	-240.3560638427734	-1610.430908203125	500.3098754882812	-233.4124145507812	-1487.340209960938	478.5575866699219	-521.4700927734375	-1575.16162109375	455.7059936523438	-237.3231811523438	-1576.467041015625	394.3872680664062	-519.3889770507812	-1671.329467773438	360.0332336425781	-508.5615844726562	-1589.580688476562	331.77587890625	-248.9571990966797	-1840.58447265625	198.7152862548828	-520.8394775390625	-1658.53271484375	370.3941650390625	-229.4767456054688	-1894.162109375	350.9316101074219	-387.349853515625	-1641.765258789062	245.8035125732422	-265.5365600585938	-1708.378051757812	285.3892211914062	-245.8519592285156	-1847.075805664062	330.8046875	-480.0077819824219	-1773.66015625	116.8077392578125	-289.6329345703125	-1603.381591796875	66.5867691040039	-316.6250915527344	-1843.598388671875	114.3183212280273	-349.6326904296875	-1832.7431640625	78.78970336914062	-373.9244384765625	-1850.48681640625	86.84930419921875	-321.3155822753906	-1907.734497070312	363.3312072753906	-439.2993469238281
46	0.225	-1550.446411132812	1436.492065429688	-504.1138610839844	-1548.532470703125	1400.101196289062	-183.3931732177734	-1601.316040039062	965.19091796875	-506.3652648925781	-1593.244750976562	955.884033203125	-199.3168182373047	-1541.655395507812	921.1298217773438	-490.9260559082031	-1852.384033203125	366.5863037109375	-411.1378173828125	-1529.980346679688	915.911376953125	-227.3110809326172	-1661.783447265625	833.1796264648438	-503.9488220214844	-1671.519409179688	849.3847045898438	-200.7299194335938	-1686.226196289062	1002.231384277344	-352.9679260253906	-1469.369873046875	646.9674682617188	-532.6154174804688	-1676.111694335938	431.7515258789062	-505.7050476074219	-1549.636840820312	619.5775756835938	-531.5320434570312	-1434.212158203125	550.8780517578125	-520.9854736328125	-1677.40673828125	70.41575622558594	-258.3147583007812	-1585.381103515625	470.7214660644531	-522.8046264648438	-1514.677368164062	523.1875	-513.9482421875	-1527.878662109375	600.6539916992188	-210.6108856201172	-1761.50732421875	142.9764251708984	-475.7166137695312	-1604.857543945312	597.60888671875	-207.5823364257812	-1524.727783203125	503.662353515625	-240.8249816894531	-1604.2265625	503.7003479003906	-233.2477569580078	-1465.966552734375	484.3762817382812	-519.85400390625	-1570.47607421875	457.8292541503906	-237.1348724365234	-1553.343994140625	396.9935607910156	-518.0465698242188	-1646.575927734375	359.3859252929688	-507.4694213867188	-1587.236694335938	333.39404296875	-249.1125793457031	-1809.0087890625	192.9524688720703	-520.5798950195312	-1654.667114257812	372.4905395507812	-229.1804809570312	-1870.37255859375	342.5472717285156	-387.62353515625	-1639.816528320312	247.7542266845703	-265.3737487792969	-1706.166137695312	288.0712890625	-246.3295288085938	-1821.205078125	324.1440124511719	-479.6390991210938	-1772.44189453125	118.9386367797852	-289.9843139648438	-1603.42333984375	66.37854766845703	-316.767822265625	-1843.481567382812	116.0161895751953	-350.2986755371094	-1832.200561523438	80.44971466064453	-374.1280822753906	-1850.072021484375	89.28630828857422	-322.0870971679688	-1883.748046875	354.13720703125	-438.8956604003906
